<svg width="80" height="82" viewBox="0 0 80 82" fill="none" xmlns="http://www.w3.org/2000/svg">
<ellipse cx="40" cy="41" rx="40" ry="41" fill="#D9D9D9"/>
<path d="M51.2638 60.264C48.3838 62.088 45.2478 63 41.8558 63C37.8878 63 34.6558 61.784 32.1598 59.352C29.8558 57.08 28.7038 54.152 28.7038 50.568C28.7038 46.856 30.0478 43.848 32.7358 41.544C30.5278 39.432 29.4238 36.632 29.4238 33.144C29.4238 29.752 30.6398 27.032 33.0718 24.984C35.0238 23.352 37.2958 22.536 39.8878 22.536C43.3758 22.536 46.2078 24.056 48.3838 27.096V33.144C45.9518 30.424 43.3918 29.064 40.7038 29.064C40.6718 29.064 40.6398 29.064 40.6078 29.064C40.5758 29.064 40.5438 29.064 40.5118 29.064C37.7918 29.128 36.4318 30.568 36.4318 33.384C36.4318 34.92 36.9278 36.12 37.9198 36.984C38.9118 37.848 40.2878 38.28 42.0478 38.28H50.6877V45H42.1438C40.0318 45 38.3838 45.48 37.1998 46.44C36.0478 47.432 35.4718 48.808 35.4718 50.568C35.4718 52.328 36.0638 53.72 37.2478 54.744C38.4638 55.768 40.1278 56.28 42.2398 56.28H42.3838C45.3918 56.216 48.3518 55.336 51.2638 53.64V60.264Z" fill="black"/>
</svg>
